<svg xmlns="http://www.w3.org/2000/svg" width="24" height="24" fill="none" viewBox="0 0 24 24"><path fill="currentColor" fill-rule="evenodd" d="M14.7191 8.79L10.4291 13.09L8.77911 11.44C8.53472 11.1546 8.15099 11.0303 7.78569 11.1182C7.42039 11.2061 7.13517 11.4913 7.0473 11.8566C6.95942 12.2219 7.08373 12.6056 7.36911 12.85L9.71911 15.21C9.90783 15.3972 10.1633 15.5015 10.4291 15.5C10.6914 15.4989 10.9428 15.3947 11.1291 15.21L16.1291 10.21C16.3184 10.0222 16.4249 9.76664 16.4249 9.5C16.4249 9.23336 16.3184 8.97777 16.1291 8.79C15.7391 8.40228 15.1091 8.40228 14.7191 8.79Z" clip-rule="evenodd"/></svg>